<svg width="407" height="77" viewBox="0 0 407 77" fill="none" xmlns="http://www.w3.org/2000/svg">
<path d="M30.272 25.848C29.952 26.36 29.6107 26.744 29.248 27C28.9067 27.256 28.4587 27.384 27.904 27.384C27.4133 27.384 26.88 27.2347 26.304 26.936C25.7493 26.616 25.1093 26.264 24.384 25.88C23.68 25.496 22.8693 25.1547 21.952 24.856C21.0347 24.536 19.9893 24.376 18.816 24.376C16.7893 24.376 15.2747 24.8133 14.272 25.688C13.2907 26.5413 12.8 27.704 12.8 29.176C12.8 30.1147 13.0987 30.8933 13.696 31.512C14.2933 32.1307 15.072 32.664 16.032 33.112C17.0133 33.56 18.1227 33.976 19.36 34.36C20.6187 34.7227 21.8987 35.1387 23.2 35.608C24.5013 36.056 25.7707 36.5893 27.008 37.208C28.2667 37.8267 29.376 38.616 30.336 39.576C31.3173 40.536 32.1067 41.7093 32.704 43.096C33.3013 44.4613 33.6 46.1147 33.6 48.056C33.6 50.2107 33.2267 52.2267 32.48 54.104C31.7333 55.9813 30.6453 57.624 29.216 59.032C27.808 60.4187 26.0587 61.5173 23.968 62.328C21.8987 63.1173 19.5413 63.512 16.896 63.512C15.4453 63.512 13.9627 63.3627 12.448 63.064C10.9547 62.7653 9.504 62.3493 8.096 61.816C6.688 61.2613 5.36533 60.6107 4.128 59.864C2.89067 59.1173 1.81333 58.2853 0.896 57.368L4.096 52.312C4.352 51.9493 4.68267 51.6507 5.088 51.416C5.51467 51.16 5.97333 51.032 6.464 51.032C7.104 51.032 7.744 51.2347 8.384 51.64C9.04533 52.0453 9.78133 52.4933 10.592 52.984C11.424 53.4747 12.3733 53.9227 13.44 54.328C14.5067 54.7333 15.7653 54.936 17.216 54.936C19.1787 54.936 20.704 54.5093 21.792 53.656C22.88 52.7813 23.424 51.4053 23.424 49.528C23.424 48.44 23.1253 47.5547 22.528 46.872C21.9307 46.1893 21.1413 45.624 20.16 45.176C19.2 44.728 18.1013 44.3333 16.864 43.992C15.6267 43.6507 14.3573 43.2773 13.056 42.872C11.7547 42.4453 10.4853 41.9333 9.248 41.336C8.01067 40.7173 6.90133 39.9173 5.92 38.936C4.96 37.9333 4.18133 36.696 3.584 35.224C2.98667 33.7307 2.688 31.896 2.688 29.72C2.688 27.9707 3.04 26.264 3.744 24.6C4.448 22.936 5.48267 21.4533 6.848 20.152C8.21333 18.8507 9.888 17.816 11.872 17.048C13.856 16.2587 16.128 15.864 18.688 15.864C20.1173 15.864 21.504 15.9813 22.848 16.216C24.2133 16.4293 25.504 16.76 26.72 17.208C27.936 17.6347 29.0667 18.1573 30.112 18.776C31.1787 19.3733 32.128 20.056 32.96 20.824L30.272 25.848ZM68.007 45.176L63.687 32.408C63.367 31.5973 63.0257 30.648 62.663 29.56C62.3003 28.4507 61.9377 27.256 61.575 25.976C61.255 27.2773 60.9137 28.4827 60.551 29.592C60.1883 30.7013 59.847 31.6613 59.527 32.472L55.239 45.176H68.007ZM85.191 63H76.807C75.8683 63 75.111 62.7867 74.535 62.36C73.959 61.912 73.5217 61.3467 73.223 60.664L70.471 52.536H52.743L49.991 60.664C49.7563 61.2613 49.3297 61.8053 48.711 62.296C48.1137 62.7653 47.367 63 46.471 63H38.023L56.071 16.376H67.143L85.191 63ZM145.763 16.376V63H136.227V36.184C136.227 35.5653 136.238 34.8933 136.259 34.168C136.302 33.4427 136.366 32.7067 136.451 31.96L124.067 55.928C123.683 56.6747 123.16 57.24 122.499 57.624C121.859 58.008 121.123 58.2 120.291 58.2H118.819C117.987 58.2 117.24 58.008 116.579 57.624C115.939 57.24 115.427 56.6747 115.043 55.928L102.659 31.896C102.723 32.664 102.776 33.4213 102.819 34.168C102.862 34.8933 102.883 35.5653 102.883 36.184V63H93.347V16.376H101.603C102.072 16.376 102.478 16.3867 102.819 16.408C103.182 16.4293 103.502 16.4933 103.779 16.6C104.056 16.7067 104.302 16.8773 104.515 17.112C104.75 17.3253 104.974 17.6347 105.187 18.04L117.187 41.688C117.614 42.4987 118.019 43.3413 118.403 44.216C118.808 45.0907 119.192 45.9867 119.555 46.904C119.918 45.9653 120.291 45.048 120.675 44.152C121.08 43.256 121.507 42.4027 121.955 41.592L133.923 18.04C134.136 17.6347 134.35 17.3253 134.563 17.112C134.798 16.8773 135.054 16.7067 135.331 16.6C135.608 16.4933 135.918 16.4293 136.259 16.408C136.622 16.3867 137.038 16.376 137.507 16.376H145.763ZM185.025 25.848C184.705 26.36 184.363 26.744 184.001 27C183.659 27.256 183.211 27.384 182.657 27.384C182.166 27.384 181.633 27.2347 181.057 26.936C180.502 26.616 179.862 26.264 179.137 25.88C178.433 25.496 177.622 25.1547 176.705 24.856C175.787 24.536 174.742 24.376 173.569 24.376C171.542 24.376 170.027 24.8133 169.025 25.688C168.043 26.5413 167.553 27.704 167.553 29.176C167.553 30.1147 167.851 30.8933 168.449 31.512C169.046 32.1307 169.825 32.664 170.785 33.112C171.766 33.56 172.875 33.976 174.113 34.36C175.371 34.7227 176.651 35.1387 177.953 35.608C179.254 36.056 180.523 36.5893 181.761 37.208C183.019 37.8267 184.129 38.616 185.089 39.576C186.07 40.536 186.859 41.7093 187.457 43.096C188.054 44.4613 188.353 46.1147 188.353 48.056C188.353 50.2107 187.979 52.2267 187.233 54.104C186.486 55.9813 185.398 57.624 183.969 59.032C182.561 60.4187 180.811 61.5173 178.721 62.328C176.651 63.1173 174.294 63.512 171.649 63.512C170.198 63.512 168.715 63.3627 167.201 63.064C165.707 62.7653 164.257 62.3493 162.849 61.816C161.441 61.2613 160.118 60.6107 158.881 59.864C157.643 59.1173 156.566 58.2853 155.649 57.368L158.849 52.312C159.105 51.9493 159.435 51.6507 159.841 51.416C160.267 51.16 160.726 51.032 161.217 51.032C161.857 51.032 162.497 51.2347 163.137 51.64C163.798 52.0453 164.534 52.4933 165.345 52.984C166.177 53.4747 167.126 53.9227 168.193 54.328C169.259 54.7333 170.518 54.936 171.969 54.936C173.931 54.936 175.457 54.5093 176.545 53.656C177.633 52.7813 178.177 51.4053 178.177 49.528C178.177 48.44 177.878 47.5547 177.281 46.872C176.683 46.1893 175.894 45.624 174.913 45.176C173.953 44.728 172.854 44.3333 171.617 43.992C170.379 43.6507 169.11 43.2773 167.809 42.872C166.507 42.4453 165.238 41.9333 164.001 41.336C162.763 40.7173 161.654 39.9173 160.673 38.936C159.713 37.9333 158.934 36.696 158.337 35.224C157.739 33.7307 157.441 31.896 157.441 29.72C157.441 27.9707 157.793 26.264 158.497 24.6C159.201 22.936 160.235 21.4533 161.601 20.152C162.966 18.8507 164.641 17.816 166.625 17.048C168.609 16.2587 170.881 15.864 173.441 15.864C174.87 15.864 176.257 15.9813 177.601 16.216C178.966 16.4293 180.257 16.76 181.473 17.208C182.689 17.6347 183.819 18.1573 184.865 18.776C185.931 19.3733 186.881 20.056 187.713 20.824L185.025 25.848ZM218.638 54.456C220.089 54.456 221.379 54.2213 222.51 53.752C223.662 53.2613 224.633 52.568 225.422 51.672C226.211 50.776 226.809 49.688 227.214 48.408C227.641 47.1067 227.854 45.6347 227.854 43.992V16.376H238.67V43.992C238.67 46.8507 238.201 49.4747 237.262 51.864C236.345 54.2533 235.022 56.312 233.294 58.04C231.566 59.768 229.465 61.112 226.99 62.072C224.515 63.032 221.731 63.512 218.638 63.512C215.523 63.512 212.729 63.032 210.254 62.072C207.779 61.112 205.678 59.768 203.95 58.04C202.222 56.312 200.899 54.2533 199.982 51.864C199.065 49.4747 198.606 46.8507 198.606 43.992V16.376H209.422V43.96C209.422 45.6027 209.625 47.0747 210.03 48.376C210.457 49.656 211.065 50.7547 211.854 51.672C212.643 52.568 213.603 53.2613 214.734 53.752C215.886 54.2213 217.187 54.456 218.638 54.456ZM292.303 16.376V63H286.671C285.839 63 285.135 62.872 284.559 62.616C284.005 62.3387 283.45 61.8693 282.895 61.208L260.911 33.4C260.997 34.232 261.05 35.0427 261.071 35.832C261.114 36.6 261.135 37.3253 261.135 38.008V63H251.599V16.376H257.295C257.765 16.376 258.159 16.3973 258.479 16.44C258.799 16.4827 259.087 16.568 259.343 16.696C259.599 16.8027 259.845 16.9627 260.079 17.176C260.314 17.3893 260.581 17.6773 260.879 18.04L283.055 46.04C282.949 45.144 282.874 44.28 282.831 43.448C282.789 42.5947 282.767 41.7947 282.767 41.048V16.376H292.303ZM328.23 38.84H344.806V58.52C342.416 60.2693 339.867 61.5387 337.158 62.328C334.47 63.1173 331.654 63.512 328.71 63.512C324.87 63.512 321.371 62.9147 318.214 61.72C315.078 60.504 312.39 58.84 310.15 56.728C307.91 54.5947 306.182 52.0773 304.966 49.176C303.75 46.2533 303.142 43.0853 303.142 39.672C303.142 36.1947 303.718 33.0053 304.87 30.104C306.022 27.1813 307.664 24.664 309.798 22.552C311.952 20.44 314.544 18.7973 317.574 17.624C320.624 16.4507 324.027 15.864 327.782 15.864C329.723 15.864 331.547 16.024 333.254 16.344C334.96 16.664 336.528 17.1013 337.958 17.656C339.408 18.2107 340.731 18.872 341.926 19.64C343.12 20.408 344.187 21.24 345.126 22.136L341.99 26.904C341.499 27.6507 340.859 28.1093 340.07 28.28C339.302 28.4507 338.47 28.2587 337.574 27.704C336.72 27.192 335.91 26.7547 335.142 26.392C334.395 26.008 333.627 25.6987 332.838 25.464C332.048 25.2293 331.216 25.0587 330.342 24.952C329.467 24.8453 328.486 24.792 327.398 24.792C325.371 24.792 323.547 25.1547 321.926 25.88C320.304 26.584 318.918 27.5867 317.766 28.888C316.635 30.1893 315.76 31.7573 315.142 33.592C314.523 35.4053 314.214 37.432 314.214 39.672C314.214 42.1467 314.555 44.344 315.238 46.264C315.92 48.184 316.88 49.8053 318.118 51.128C319.376 52.4507 320.87 53.464 322.598 54.168C324.347 54.8507 326.278 55.192 328.39 55.192C329.691 55.192 330.864 55.064 331.91 54.808C332.976 54.552 334.011 54.2107 335.014 53.784V46.712H330.406C329.723 46.712 329.19 46.5307 328.806 46.168C328.422 45.8053 328.23 45.3467 328.23 44.792V38.84Z" fill="#3c3939"/>
<path d="M379.411 19V34.7695H364V47.2305H379.411V63H391.589V47.2305H407V34.7695H391.589V19H379.411Z" fill="url(#paint0_linear)"/>
<defs>
<linearGradient id="paint0_linear" x1="368.32" y1="25.2589" x2="403.307" y2="57.8234" gradientUnits="userSpaceOnUse">
<stop stop-color="#2D7FEF"/>
<stop offset="1" stop-color="#48DCD9"/>
</linearGradient>
</defs>
</svg>
