<svg width="425" height="78" viewBox="0 0 425 78" fill="none" xmlns="http://www.w3.org/2000/svg">
<path d="M30.9351 26.6285C30.6151 27.1405 30.2738 27.5245 29.9111 27.7805C29.5698 28.0365 29.1218 28.1645 28.5671 28.1645C28.0764 28.1645 27.5431 28.0152 26.9671 27.7165C26.4124 27.3965 25.7724 27.0445 25.0471 26.6605C24.3431 26.2765 23.5324 25.9352 22.6151 25.6365C21.6978 25.3165 20.6524 25.1565 19.4791 25.1565C17.4524 25.1565 15.9378 25.5938 14.9351 26.4685C13.9538 27.3218 13.4631 28.4845 13.4631 29.9565C13.4631 30.8952 13.7618 31.6738 14.3591 32.2925C14.9564 32.9112 15.7351 33.4445 16.6951 33.8925C17.6764 34.3405 18.7858 34.7565 20.0231 35.1405C21.2818 35.5032 22.5618 35.9192 23.8631 36.3885C25.1644 36.8365 26.4338 37.3698 27.6711 37.9885C28.9298 38.6072 30.0391 39.3965 30.9991 40.3565C31.9804 41.3165 32.7698 42.4898 33.3671 43.8765C33.9644 45.2418 34.2631 46.8952 34.2631 48.8365C34.2631 50.9912 33.8898 53.0072 33.1431 54.8845C32.3964 56.7618 31.3084 58.4045 29.8791 59.8125C28.4711 61.1992 26.7218 62.2978 24.6311 63.1085C22.5618 63.8978 20.2044 64.2925 17.5591 64.2925C16.1084 64.2925 14.6258 64.1432 13.1111 63.8445C11.6178 63.5458 10.1671 63.1298 8.75909 62.5965C7.35109 62.0418 6.02842 61.3912 4.79109 60.6445C3.55375 59.8978 2.47642 59.0658 1.55909 58.1485L4.75909 53.0925C5.01509 52.7298 5.34575 52.4312 5.75109 52.1965C6.17775 51.9405 6.63642 51.8125 7.12709 51.8125C7.76709 51.8125 8.40709 52.0152 9.04709 52.4205C9.70842 52.8258 10.4444 53.2738 11.2551 53.7645C12.0871 54.2552 13.0364 54.7032 14.1031 55.1085C15.1698 55.5138 16.4284 55.7165 17.8791 55.7165C19.8418 55.7165 21.3671 55.2898 22.4551 54.4365C23.5431 53.5618 24.0871 52.1858 24.0871 50.3085C24.0871 49.2205 23.7884 48.3352 23.1911 47.6525C22.5938 46.9698 21.8044 46.4045 20.8231 45.9565C19.8631 45.5085 18.7644 45.1138 17.5271 44.7725C16.2898 44.4312 15.0204 44.0578 13.7191 43.6525C12.4178 43.2258 11.1484 42.7138 9.91109 42.1165C8.67375 41.4978 7.56442 40.6978 6.58309 39.7165C5.62309 38.7138 4.84442 37.4765 4.24709 36.0045C3.64975 34.5112 3.35109 32.6765 3.35109 30.5005C3.35109 28.7512 3.70309 27.0445 4.40709 25.3805C5.11109 23.7165 6.14575 22.2338 7.51109 20.9325C8.87642 19.6312 10.5511 18.5965 12.5351 17.8285C14.5191 17.0392 16.7911 16.6445 19.3511 16.6445C20.7804 16.6445 22.1671 16.7618 23.5111 16.9965C24.8764 17.2098 26.1671 17.5405 27.3831 17.9885C28.5991 18.4152 29.7298 18.9378 30.7751 19.5565C31.8418 20.1538 32.7911 20.8365 33.6231 21.6045L30.9351 26.6285ZM68.6701 45.9565L64.3501 33.1885C64.0301 32.3778 63.6888 31.4285 63.3261 30.3405C62.9634 29.2312 62.6008 28.0365 62.2381 26.7565C61.9181 28.0578 61.5768 29.2632 61.2141 30.3725C60.8514 31.4818 60.5101 32.4418 60.1901 33.2525L55.9021 45.9565H68.6701ZM85.8541 63.7805H77.4701C76.5314 63.7805 75.7741 63.5672 75.1981 63.1405C74.6221 62.6925 74.1848 62.1272 73.8861 61.4445L71.1341 53.3165H53.4061L50.6541 61.4445C50.4194 62.0418 49.9928 62.5858 49.3741 63.0765C48.7768 63.5458 48.0301 63.7805 47.1341 63.7805H38.6861L56.7341 17.1565H67.8061L85.8541 63.7805ZM146.426 17.1565V63.7805H136.89V36.9645C136.89 36.3458 136.901 35.6738 136.922 34.9485C136.965 34.2232 137.029 33.4872 137.114 32.7405L124.73 56.7085C124.346 57.4552 123.823 58.0205 123.162 58.4045C122.522 58.7885 121.786 58.9805 120.954 58.9805H119.482C118.65 58.9805 117.903 58.7885 117.242 58.4045C116.602 58.0205 116.09 57.4552 115.706 56.7085L103.322 32.6765C103.386 33.4445 103.439 34.2018 103.482 34.9485C103.525 35.6738 103.546 36.3458 103.546 36.9645V63.7805H94.0101V17.1565H102.266C102.735 17.1565 103.141 17.1672 103.482 17.1885C103.845 17.2098 104.165 17.2738 104.442 17.3805C104.719 17.4872 104.965 17.6578 105.178 17.8925C105.413 18.1058 105.637 18.4152 105.85 18.8205L117.85 42.4685C118.277 43.2792 118.682 44.1218 119.066 44.9965C119.471 45.8712 119.855 46.7672 120.218 47.6845C120.581 46.7458 120.954 45.8285 121.338 44.9325C121.743 44.0365 122.17 43.1832 122.618 42.3725L134.586 18.8205C134.799 18.4152 135.013 18.1058 135.226 17.8925C135.461 17.6578 135.717 17.4872 135.994 17.3805C136.271 17.2738 136.581 17.2098 136.922 17.1885C137.285 17.1672 137.701 17.1565 138.17 17.1565H146.426ZM185.688 26.6285C185.368 27.1405 185.026 27.5245 184.664 27.7805C184.322 28.0365 183.874 28.1645 183.32 28.1645C182.829 28.1645 182.296 28.0152 181.72 27.7165C181.165 27.3965 180.525 27.0445 179.8 26.6605C179.096 26.2765 178.285 25.9352 177.368 25.6365C176.45 25.3165 175.405 25.1565 174.232 25.1565C172.205 25.1565 170.69 25.5938 169.688 26.4685C168.706 27.3218 168.216 28.4845 168.216 29.9565C168.216 30.8952 168.514 31.6738 169.112 32.2925C169.709 32.9112 170.488 33.4445 171.448 33.8925C172.429 34.3405 173.538 34.7565 174.776 35.1405C176.034 35.5032 177.314 35.9192 178.616 36.3885C179.917 36.8365 181.186 37.3698 182.424 37.9885C183.682 38.6072 184.792 39.3965 185.752 40.3565C186.733 41.3165 187.522 42.4898 188.12 43.8765C188.717 45.2418 189.016 46.8952 189.016 48.8365C189.016 50.9912 188.642 53.0072 187.896 54.8845C187.149 56.7618 186.061 58.4045 184.632 59.8125C183.224 61.1992 181.474 62.2978 179.384 63.1085C177.314 63.8978 174.957 64.2925 172.312 64.2925C170.861 64.2925 169.378 64.1432 167.864 63.8445C166.37 63.5458 164.92 63.1298 163.512 62.5965C162.104 62.0418 160.781 61.3912 159.544 60.6445C158.306 59.8978 157.229 59.0658 156.312 58.1485L159.512 53.0925C159.768 52.7298 160.098 52.4312 160.504 52.1965C160.93 51.9405 161.389 51.8125 161.88 51.8125C162.52 51.8125 163.16 52.0152 163.8 52.4205C164.461 52.8258 165.197 53.2738 166.008 53.7645C166.84 54.2552 167.789 54.7032 168.856 55.1085C169.922 55.5138 171.181 55.7165 172.632 55.7165C174.594 55.7165 176.12 55.2898 177.208 54.4365C178.296 53.5618 178.84 52.1858 178.84 50.3085C178.84 49.2205 178.541 48.3352 177.944 47.6525C177.346 46.9698 176.557 46.4045 175.576 45.9565C174.616 45.5085 173.517 45.1138 172.28 44.7725C171.042 44.4312 169.773 44.0578 168.472 43.6525C167.17 43.2258 165.901 42.7138 164.664 42.1165C163.426 41.4978 162.317 40.6978 161.336 39.7165C160.376 38.7138 159.597 37.4765 159 36.0045C158.402 34.5112 158.104 32.6765 158.104 30.5005C158.104 28.7512 158.456 27.0445 159.16 25.3805C159.864 23.7165 160.898 22.2338 162.264 20.9325C163.629 19.6312 165.304 18.5965 167.288 17.8285C169.272 17.0392 171.544 16.6445 174.104 16.6445C175.533 16.6445 176.92 16.7618 178.264 16.9965C179.629 17.2098 180.92 17.5405 182.136 17.9885C183.352 18.4152 184.482 18.9378 185.528 19.5565C186.594 20.1538 187.544 20.8365 188.376 21.6045L185.688 26.6285ZM219.301 55.2365C220.752 55.2365 222.042 55.0018 223.173 54.5325C224.325 54.0418 225.296 53.3485 226.085 52.4525C226.874 51.5565 227.472 50.4685 227.877 49.1885C228.304 47.8872 228.517 46.4152 228.517 44.7725V17.1565H239.333V44.7725C239.333 47.6312 238.864 50.2552 237.925 52.6445C237.008 55.0338 235.685 57.0925 233.957 58.8205C232.229 60.5485 230.128 61.8925 227.653 62.8525C225.178 63.8125 222.394 64.2925 219.301 64.2925C216.186 64.2925 213.392 63.8125 210.917 62.8525C208.442 61.8925 206.341 60.5485 204.613 58.8205C202.885 57.0925 201.562 55.0338 200.645 52.6445C199.728 50.2552 199.269 47.6312 199.269 44.7725V17.1565H210.085V44.7405C210.085 46.3832 210.288 47.8552 210.693 49.1565C211.12 50.4365 211.728 51.5352 212.517 52.4525C213.306 53.3485 214.266 54.0418 215.397 54.5325C216.549 55.0018 217.85 55.2365 219.301 55.2365ZM292.967 17.1565V63.7805H287.335C286.503 63.7805 285.799 63.6525 285.223 63.3965C284.668 63.1192 284.113 62.6498 283.559 61.9885L261.575 34.1805C261.66 35.0125 261.713 35.8232 261.735 36.6125C261.777 37.3805 261.799 38.1058 261.799 38.7885V63.7805H252.263V17.1565H257.959C258.428 17.1565 258.823 17.1778 259.143 17.2205C259.463 17.2632 259.751 17.3485 260.007 17.4765C260.263 17.5832 260.508 17.7432 260.743 17.9565C260.977 18.1698 261.244 18.4578 261.543 18.8205L283.719 46.8205C283.612 45.9245 283.537 45.0605 283.495 44.2285C283.452 43.3752 283.431 42.5752 283.431 41.8285V17.1565H292.967ZM328.893 39.6205H345.469V59.3005C343.079 61.0498 340.53 62.3192 337.821 63.1085C335.133 63.8978 332.317 64.2925 329.373 64.2925C325.533 64.2925 322.034 63.6952 318.877 62.5005C315.741 61.2845 313.053 59.6205 310.813 57.5085C308.573 55.3752 306.845 52.8578 305.629 49.9565C304.413 47.0338 303.805 43.8658 303.805 40.4525C303.805 36.9752 304.381 33.7858 305.533 30.8845C306.685 27.9618 308.327 25.4445 310.461 23.3325C312.615 21.2205 315.207 19.5778 318.237 18.4045C321.287 17.2312 324.69 16.6445 328.445 16.6445C330.386 16.6445 332.21 16.8045 333.917 17.1245C335.623 17.4445 337.191 17.8818 338.621 18.4365C340.071 18.9912 341.394 19.6525 342.589 20.4205C343.783 21.1885 344.85 22.0205 345.789 22.9165L342.653 27.6845C342.162 28.4312 341.522 28.8898 340.733 29.0605C339.965 29.2312 339.133 29.0392 338.237 28.4845C337.383 27.9725 336.573 27.5352 335.805 27.1725C335.058 26.7885 334.29 26.4792 333.501 26.2445C332.711 26.0098 331.879 25.8392 331.005 25.7325C330.13 25.6258 329.149 25.5725 328.061 25.5725C326.034 25.5725 324.21 25.9352 322.589 26.6605C320.967 27.3645 319.581 28.3672 318.429 29.6685C317.298 30.9698 316.423 32.5378 315.805 34.3725C315.186 36.1858 314.877 38.2125 314.877 40.4525C314.877 42.9272 315.218 45.1245 315.901 47.0445C316.583 48.9645 317.543 50.5858 318.781 51.9085C320.039 53.2312 321.533 54.2445 323.261 54.9485C325.01 55.6312 326.941 55.9725 329.053 55.9725C330.354 55.9725 331.527 55.8445 332.573 55.5885C333.639 55.3325 334.674 54.9912 335.677 54.5645V47.4925H331.069C330.386 47.4925 329.853 47.3112 329.469 46.9485C329.085 46.5858 328.893 46.1272 328.893 45.5725V39.6205Z" fill="#3c3939"/>
<g filter="url(#filter0_d)">
<rect x="385.504" y="13.062" width="16.7191" height="52.4371" fill="url(#paint0_linear)"/>
</g>
<g filter="url(#filter1_d)">
<rect x="420.082" y="30.921" width="16.7191" height="52.4371" transform="rotate(90 420.082 30.921)" fill="url(#paint1_linear)"/>
</g>
<defs>
<filter id="filter0_d" x="382.504" y="12.062" width="22.7191" height="58.4371" filterUnits="userSpaceOnUse" color-interpolation-filters="sRGB">
<feFlood flood-opacity="0" result="BackgroundImageFix"/>
<feColorMatrix in="SourceAlpha" type="matrix" values="0 0 0 0 0 0 0 0 0 0 0 0 0 0 0 0 0 0 127 0"/>
<feOffset dy="2"/>
<feGaussianBlur stdDeviation="1.5"/>
<feColorMatrix type="matrix" values="0 0 0 0 0 0 0 0 0 0 0 0 0 0 0 0 0 0 0.14 0"/>
<feBlend mode="normal" in2="BackgroundImageFix" result="effect1_dropShadow"/>
<feBlend mode="normal" in="SourceGraphic" in2="effect1_dropShadow" result="shape"/>
</filter>
<filter id="filter1_d" x="363.645" y="28.921" width="60.4371" height="24.7191" filterUnits="userSpaceOnUse" color-interpolation-filters="sRGB">
<feFlood flood-opacity="0" result="BackgroundImageFix"/>
<feColorMatrix in="SourceAlpha" type="matrix" values="0 0 0 0 0 0 0 0 0 0 0 0 0 0 0 0 0 0 127 0"/>
<feOffset dy="2"/>
<feGaussianBlur stdDeviation="2"/>
<feColorMatrix type="matrix" values="0 0 0 0 0 0 0 0 0 0 0 0 0 0 0 0 0 0 0.16 0"/>
<feBlend mode="normal" in2="BackgroundImageFix" result="effect1_dropShadow"/>
<feBlend mode="normal" in="SourceGraphic" in2="effect1_dropShadow" result="shape"/>
</filter>
<linearGradient id="paint0_linear" x1="393.864" y1="13.062" x2="393.864" y2="65.4991" gradientUnits="userSpaceOnUse">
<stop stop-color="#2D7FEF"/>
<stop offset="1" stop-color="#48DCD9"/>
</linearGradient>
<linearGradient id="paint1_linear" x1="428.442" y1="30.921" x2="428.442" y2="83.3581" gradientUnits="userSpaceOnUse">
<stop stop-color="#2D7FEF"/>
<stop offset="1" stop-color="#48DCD9"/>
</linearGradient>
</defs>
</svg>
