<svg width="91" height="79" viewBox="0 0 91 79" fill="none" xmlns="http://www.w3.org/2000/svg">
<path d="M31.0281 26.3158C30.7081 26.8278 30.3668 27.2118 30.0041 27.4678C29.6628 27.7238 29.2148 27.8518 28.6601 27.8518C28.1694 27.8518 27.6361 27.7025 27.0601 27.4038C26.5054 27.0838 25.8654 26.7318 25.1401 26.3478C24.4361 25.9638 23.6254 25.6225 22.7081 25.3238C21.7908 25.0038 20.7454 24.8438 19.5721 24.8438C17.5454 24.8438 16.0308 25.2811 15.0281 26.1558C14.0468 27.0091 13.5561 28.1718 13.5561 29.6438C13.5561 30.5825 13.8548 31.3611 14.4521 31.9798C15.0494 32.5985 15.8281 33.1318 16.7881 33.5798C17.7694 34.0278 18.8788 34.4438 20.1161 34.8278C21.3748 35.1905 22.6548 35.6065 23.9561 36.0758C25.2574 36.5238 26.5268 37.0571 27.7641 37.6758C29.0228 38.2945 30.1321 39.0838 31.0921 40.0438C32.0734 41.0038 32.8628 42.1771 33.4601 43.5638C34.0574 44.9291 34.3561 46.5825 34.3561 48.5238C34.3561 50.6785 33.9828 52.6945 33.2361 54.5718C32.4894 56.4491 31.4014 58.0918 29.9721 59.4998C28.5641 60.8865 26.8148 61.9851 24.7241 62.7958C22.6548 63.5851 20.2974 63.9798 17.6521 63.9798C16.2014 63.9798 14.7188 63.8305 13.2041 63.5318C11.7108 63.2331 10.2601 62.8171 8.8521 62.2838C7.4441 61.7291 6.12144 61.0785 4.8841 60.3318C3.64677 59.5851 2.56944 58.7531 1.6521 57.8358L4.8521 52.7798C5.1081 52.4171 5.43877 52.1185 5.8441 51.8838C6.27077 51.6278 6.72944 51.4998 7.2201 51.4998C7.8601 51.4998 8.5001 51.7025 9.1401 52.1078C9.80144 52.5131 10.5374 52.9611 11.3481 53.4518C12.1801 53.9425 13.1294 54.3905 14.1961 54.7958C15.2628 55.2011 16.5214 55.4038 17.9721 55.4038C19.9348 55.4038 21.4601 54.9771 22.5481 54.1238C23.6361 53.2491 24.1801 51.8731 24.1801 49.9958C24.1801 48.9078 23.8814 48.0225 23.2841 47.3398C22.6868 46.6571 21.8974 46.0918 20.9161 45.6438C19.9561 45.1958 18.8574 44.8011 17.6201 44.4598C16.3828 44.1185 15.1134 43.7451 13.8121 43.3398C12.5108 42.9131 11.2414 42.4011 10.0041 41.8038C8.76677 41.1851 7.65744 40.3851 6.6761 39.4038C5.7161 38.4011 4.93744 37.1638 4.3401 35.6918C3.74277 34.1985 3.4441 32.3638 3.4441 30.1878C3.4441 28.4385 3.7961 26.7318 4.5001 25.0678C5.2041 23.4038 6.23877 21.9211 7.6041 20.6198C8.96944 19.3185 10.6441 18.2838 12.6281 17.5158C14.6121 16.7265 16.8841 16.3318 19.4441 16.3318C20.8734 16.3318 22.2601 16.4491 23.6041 16.6838C24.9694 16.8971 26.2601 17.2278 27.4761 17.6758C28.6921 18.1025 29.8228 18.6251 30.8681 19.2438C31.9348 19.8411 32.8841 20.5238 33.7161 21.2918L31.0281 26.3158Z" fill="black"/>
<g filter="url(#filter0_d)">
<rect x="60.2485" y="19.2492" width="12.893" height="40.4372" fill="url(#paint0_linear)"/>
</g>
<g filter="url(#filter1_d)">
<rect x="86.9136" y="33.0213" width="12.893" height="40.4372" transform="rotate(90 86.9136 33.0213)" fill="url(#paint1_linear)"/>
</g>
<defs>
<filter id="filter0_d" x="57.2485" y="18.2492" width="18.893" height="46.4372" filterUnits="userSpaceOnUse" color-interpolation-filters="sRGB">
<feFlood flood-opacity="0" result="BackgroundImageFix"/>
<feColorMatrix in="SourceAlpha" type="matrix" values="0 0 0 0 0 0 0 0 0 0 0 0 0 0 0 0 0 0 127 0"/>
<feOffset dy="2"/>
<feGaussianBlur stdDeviation="1.5"/>
<feColorMatrix type="matrix" values="0 0 0 0 0 0 0 0 0 0 0 0 0 0 0 0 0 0 0.14 0"/>
<feBlend mode="normal" in2="BackgroundImageFix" result="effect1_dropShadow"/>
<feBlend mode="normal" in="SourceGraphic" in2="effect1_dropShadow" result="shape"/>
</filter>
<filter id="filter1_d" x="42.4765" y="31.0213" width="48.4372" height="20.893" filterUnits="userSpaceOnUse" color-interpolation-filters="sRGB">
<feFlood flood-opacity="0" result="BackgroundImageFix"/>
<feColorMatrix in="SourceAlpha" type="matrix" values="0 0 0 0 0 0 0 0 0 0 0 0 0 0 0 0 0 0 127 0"/>
<feOffset dy="2"/>
<feGaussianBlur stdDeviation="2"/>
<feColorMatrix type="matrix" values="0 0 0 0 0 0 0 0 0 0 0 0 0 0 0 0 0 0 0.16 0"/>
<feBlend mode="normal" in2="BackgroundImageFix" result="effect1_dropShadow"/>
<feBlend mode="normal" in="SourceGraphic" in2="effect1_dropShadow" result="shape"/>
</filter>
<linearGradient id="paint0_linear" x1="66.695" y1="19.2492" x2="66.695" y2="59.6864" gradientUnits="userSpaceOnUse">
<stop stop-color="#2D7FEF"/>
<stop offset="1" stop-color="#48DCD9"/>
</linearGradient>
<linearGradient id="paint1_linear" x1="93.3601" y1="33.0213" x2="93.3601" y2="73.4584" gradientUnits="userSpaceOnUse">
<stop stop-color="#2D7FEF"/>
<stop offset="1" stop-color="#48DCD9"/>
</linearGradient>
</defs>
</svg>
